# xmcd CD database file
#
# Track frame offsets:
#	150
#	29462
#	47687
#	71537
#	106937
#	139487
#	177887
#	214787
#
# Disc length: 3333 seconds
#
# Revision: 0
# Processed by: cddbd v1.4PL0 Copyright (c) Steve Scherf et al.
# Submitted via: CDex 1.50beta10
#
DISCID=720d0308
DTITLE=Attila Zoller - Common Cause
DYEAR=1999
DGENRE=Jazz
TTITLE0=Kaybee
TTITLE1=Csardanova
TTITLE2=Common Cause
TTITLE3=Tshitar
TTITLE4=Lady Love
TTITLE5=Meet
TTITLE6=Conjunction
TTITLE7=Hella
EXTD=YEAR: 1999
EXTT0=
EXTT1=
EXTT2=
EXTT3=
EXTT4=
EXTT5=
EXTT6=
EXTT7=
PLAYORDER=
